<svg width="396" height="12" viewBox="0 0 396 12" fill="none" xmlns="http://www.w3.org/2000/svg">
<g clip-path="url(#clip0_1_2)">
<path d="M0 1C8.26249 1 8.26249 11 16.525 11C24.7875 11 24.7875 1 33.0499 1C41.3124 1 41.3124 11 49.5556 11C57.8183 11 57.8183 1 66.0612 1C74.3238 1 74.3238 11 82.5667 11C90.8294 11 90.8294 1 99.0915 1C107.354 1 107.354 11 115.617 11C123.879 11 123.879 1 132.141 1C140.404 1 140.404 11 148.667 11C156.929 11 156.929 1 165.191 1C173.454 1 173.454 11 181.716 11C189.979 11 189.979 1 198.241 1C206.504 1 206.504 11 214.748 11C223.01 11 223.01 1 231.253 1C239.515 1 239.515 11 247.759 11C256.021 11 256.021 1 264.283 1C272.546 1 272.546 11 280.809 11C289.07 11 289.07 1 297.333 1C305.596 1 305.596 11 313.859 11C322.12 11 322.12 1 330.383 1C338.645 1 338.645 11 346.908 11C355.17 11 355.17 1 363.433 1C371.695 1 371.695 11 379.939 11C388.201 11 388.201 1 396.445 1C404.707 1 404.707 11 412.95 11C421.212 11 421.212 1 429.475 1C437.737 1 437.737 11 446 11" stroke="#A1A6B4" stroke-miterlimit="10" stroke-linecap="square"/>
</g>
<defs>
<clipPath id="clip0_1_2">
<rect width="396" height="12" fill="white"/>
</clipPath>
</defs>
</svg>
